<svg width="185" height="35" viewBox="0 0 185 35" fill="none" xmlns="http://www.w3.org/2000/svg">
<path d="M0 8.84654V26.236L15.4499 35L24.3403 29.9563V12.2605L16.4328 7.77334L13.9169 9.20071L13.9743 15.5866L17.1784 15.5547L17.1498 11.8131L21.1387 14.0767V28.1374L15.4525 31.3623L3.20678 24.4145V7.0277L0 8.84654ZM15.5855 0L6.69513 5.04375V22.7395L14.6026 27.2267L17.1185 25.7993L17.0611 19.4134L13.8569 19.4453L13.8856 23.1869L9.8967 20.9233V6.86259L15.5829 3.63768L27.8286 10.5855V27.975L31.0328 26.1588V8.76931L15.5855 0Z" fill="#FF8000"/>
<path d="M104.554 14.2711C104.536 14.3377 104.52 14.4016 104.51 14.4655L104.194 16.034C103.835 17.8156 103.477 19.5998 103.115 21.3787C103.102 21.4426 103.052 21.5225 103.039 21.5331C103.034 21.5331 103.029 21.5358 103.026 21.5358C103.024 21.5145 103.021 21.4852 103.019 21.4639C103.016 21.4293 103.013 21.3973 103.008 21.368C102.839 20.5451 102.672 19.7223 102.508 18.8994L102.234 17.5359C102.023 16.4814 101.809 15.4268 101.59 14.3723C101.564 14.2498 101.42 14.0687 101.277 14.066C100.62 14.0554 99.9473 14.0554 99.2981 14.0554H98.6829L98.6385 14.2498C98.6229 14.319 98.6072 14.3829 98.5942 14.4495L98.4274 15.2777C98.0154 17.3256 97.6035 19.3734 97.1942 21.4213C97.1733 21.5251 97.1499 21.5438 97.1499 21.5438C97.1499 21.5438 97.1394 21.5464 97.1133 21.5385L95.6116 14.074H93.3982L95.3979 23.5144H96.0809C96.9048 23.5144 97.7182 23.5144 98.5316 23.5064C98.6646 23.5064 98.8158 23.3546 98.8419 23.2321C98.9097 22.9339 98.9644 22.633 99.0192 22.3374L99.233 21.1923C99.5197 19.6717 99.8065 18.1484 100.096 16.6279C100.096 16.6252 100.099 16.6199 100.099 16.6172C100.101 16.6279 100.106 16.6358 100.106 16.6465C100.318 17.741 100.523 18.8382 100.732 19.9327L101.001 21.352C101.089 21.8207 101.18 22.2894 101.269 22.7581L101.415 23.5144H102.32C103.063 23.5144 103.795 23.5118 104.528 23.5197H104.533C104.812 23.5197 104.851 23.32 104.875 23.2002L104.883 23.1682C105.143 21.9326 105.407 20.6943 105.67 19.4586L106.207 16.9341C106.332 16.3429 106.457 15.7544 106.582 15.1579L106.812 14.0714H104.614L104.554 14.2711ZM59.4819 14.8729C58.3921 14.0208 57.0129 13.6906 55.6989 13.9675C54.3302 14.2551 53.1961 15.0833 52.5078 16.2976C51.8117 17.5226 51.6735 18.9607 52.1167 20.3428C52.6877 22.127 53.9261 23.2508 55.6911 23.5916C56.0796 23.6662 56.455 23.7035 56.82 23.7035C58.2409 23.7035 59.4584 23.1283 60.4492 21.9832C60.7855 21.5944 61.0436 21.155 61.2391 20.641L61.3069 20.4599H60.676C60.2015 20.4599 59.7452 20.4599 59.289 20.4653C59.1743 20.4679 59.0569 20.5505 58.9918 20.633C58.3582 21.4319 57.5057 21.7835 56.3794 21.7062C55.2192 21.6263 54.2207 20.6916 54.0434 19.5439H61.3199V19.4107C61.3199 19.2909 61.3225 19.1737 61.3225 19.0565C61.3278 18.8062 61.3304 18.5692 61.3147 18.3295C61.2365 16.9794 60.5665 15.7171 59.4819 14.8729ZM54.1503 17.7383C54.3041 16.9208 55.1541 15.8369 56.6792 15.8582C57.8968 15.8716 58.9005 16.6705 59.0752 17.7383H54.1503ZM79.888 15.1153C79.1084 14.2764 78.0578 13.837 76.9211 13.8823C75.6931 13.9276 74.5121 14.5374 73.7638 15.5121C72.4211 17.259 72.382 20.1484 73.6752 21.9539C74.413 22.9818 75.6123 23.6343 76.882 23.6955C78.0343 23.7514 79.1215 23.312 79.8854 22.4892V25.3146H74.0741V27.2639H81.9972V14.0794H79.888V15.1153ZM79.7159 20.0978C79.3744 21.1843 78.4488 21.7914 77.2339 21.7116C76.0946 21.6397 75.2551 20.8834 75.0387 19.7383C74.9996 19.5305 74.9787 19.3228 74.9527 19.0592C74.9396 18.9287 74.9266 18.7876 74.9084 18.6278C74.9318 18.5213 74.9527 18.4041 74.9761 18.2789C75.0361 17.9567 75.1013 17.5919 75.2316 17.2537C75.5888 16.3269 76.47 15.805 77.5989 15.8582C78.6183 15.9088 79.4083 16.5107 79.7107 17.472C79.9871 18.3455 79.9897 19.227 79.7159 20.0978ZM48.0522 15.8476H42.2174V10.6574H39.944V23.4958H42.2357V18.1378H48.0731V23.5038H50.3491V10.6654H48.0522V15.8476ZM69.3004 15.1126C68.4974 14.2684 67.4363 13.829 66.3022 13.8796C65.1107 13.9302 63.9558 14.5188 63.2127 15.4535C61.9457 17.0513 61.771 19.6584 62.8034 21.5198C63.476 22.7315 64.6988 23.5384 66.0701 23.6795C66.2109 23.6928 66.3517 23.7008 66.4925 23.7008C67.5849 23.7008 68.5913 23.2614 69.3108 22.4625V23.4984H71.4017V10.6627H69.303V15.1126H69.3004ZM69.1205 20.1004C68.779 21.1869 67.8482 21.7888 66.6385 21.7142C65.4992 21.6423 64.6597 20.886 64.4459 19.7409C64.4068 19.5332 64.3859 19.3255 64.3599 19.0592C64.3468 18.9287 64.3338 18.7876 64.3155 18.6304C64.339 18.5239 64.3599 18.4067 64.3833 18.2816C64.4433 17.9594 64.5085 17.5945 64.6388 17.2563C64.996 16.3296 65.8824 15.8076 67.0087 15.8609C68.0281 15.9115 68.8181 16.5133 69.1205 17.4747C69.3916 18.3455 69.3916 19.2296 69.1205 20.1004ZM90.9344 14.8703C89.842 14.0181 88.4603 13.6906 87.1463 13.9675C85.8609 14.2391 84.7712 14.9981 84.075 16.1032C83.3737 17.219 83.1495 18.5665 83.4467 19.898C83.9551 22.1723 85.8635 23.7008 88.1031 23.7008C88.2856 23.7008 88.4707 23.6902 88.6558 23.6689C90.4417 23.4691 91.7531 22.5584 92.5587 20.9553C92.59 20.894 92.6134 20.8301 92.6421 20.7555L92.7594 20.4599H92.1363C91.667 20.4599 91.216 20.4599 90.765 20.4653C90.6555 20.4679 90.5251 20.5318 90.4573 20.6171C89.8446 21.3973 89.0104 21.7542 87.9049 21.7142C86.7291 21.6689 85.6576 20.6916 85.4959 19.5519H92.7725V19.4187C92.7725 19.2962 92.7751 19.1764 92.7751 19.0592C92.7803 18.8089 92.7829 18.5719 92.7673 18.3322C92.689 16.9767 92.019 15.7171 90.9344 14.8703ZM85.6028 17.7383C85.7488 16.9314 86.5831 15.8582 88.0979 15.8582H88.1057C89.3337 15.8609 90.3504 16.6598 90.5303 17.7383H85.6028ZM144.819 15.2245V14.074H142.717V23.4984H144.814V22.4226C144.814 21.7036 144.811 20.9925 144.816 20.2815C144.816 20.0978 144.816 19.9114 144.816 19.7249C144.814 19.1737 144.814 18.6038 144.858 18.0499C144.934 17.1418 145.431 16.5 146.3 16.1965C146.584 16.0979 146.907 16.0713 147.217 16.0473L147.332 16.0393C147.548 16.0207 147.77 16.026 147.989 16.0313C148.088 16.034 148.19 16.0367 148.289 16.0367H148.419V14.0208L148.302 14.0075C147.084 13.877 145.736 13.9302 144.819 15.2245ZM157.294 14.0581C156.887 14.0607 156.504 14.0634 156.116 14.0501C155.86 14.0394 155.719 14.1459 155.644 14.4096C155.19 16.0074 154.731 17.6052 154.272 19.2003L153.806 20.8274C153.628 21.4479 153.636 21.4479 152.982 21.4479C152.864 21.4479 152.844 21.4319 152.812 21.3041C152.471 19.9859 152.124 18.6704 151.775 17.3522L150.906 14.066H148.709L148.771 14.3377C148.787 14.4042 148.8 14.4628 148.816 14.5241L149.363 16.556C149.95 18.729 150.536 20.902 151.112 23.0777C151.188 23.36 151.316 23.5437 151.686 23.5251C152.028 23.5064 152.369 23.5117 152.729 23.5144C152.823 23.5144 152.919 23.5171 153.016 23.5171C152.854 24.0577 152.692 24.6595 152.536 25.2427C152.364 25.8792 152.189 26.5369 152.012 27.1068L151.957 27.2799H152.134C152.304 27.2799 152.471 27.2799 152.635 27.2773C153.039 27.2746 153.42 27.2719 153.803 27.2852C153.813 27.2852 153.821 27.2852 153.832 27.2852C154.118 27.2852 154.223 27.1361 154.288 26.9098C154.854 24.9817 155.43 22.9419 155.988 20.9686C156.59 18.8328 157.216 16.6252 157.828 14.5454C157.849 14.4788 157.865 14.4096 157.881 14.3323L157.946 14.0554H157.779C157.617 14.0554 157.456 14.0581 157.294 14.0581ZM163.981 13.8956C162.759 13.7811 161.619 14.2178 160.761 15.1286V14.0794H158.663V27.2639H160.774V22.4678C161.491 23.2588 162.482 23.6955 163.577 23.6982H163.588C164.779 23.6982 165.955 23.1709 166.729 22.2868C168.163 20.6517 168.351 17.7596 167.144 15.8396C166.453 14.7451 165.272 14.0181 163.981 13.8956ZM165.587 19.93C165.261 21.1284 164.365 21.7648 163.053 21.7142C161.94 21.6743 161.08 20.902 160.863 19.7489C160.824 19.5465 160.803 19.3388 160.785 19.1551C160.777 19.0805 160.769 19.0086 160.764 18.966C160.782 17.9301 160.907 17.1711 161.481 16.5773C161.95 16.0926 162.511 15.8476 163.15 15.8476C163.449 15.8476 163.767 15.9009 164.104 16.01C164.99 16.295 165.504 16.9607 165.673 18.0499C165.775 18.7077 165.746 19.3415 165.587 19.93ZM183.616 15.3177C182.716 14.3936 181.501 13.8823 180.195 13.8796H180.182C178.865 13.8796 177.645 14.3829 176.746 15.299C175.849 16.2124 175.356 17.4507 175.356 18.7876C175.354 21.5358 177.468 23.6902 180.166 23.6928H180.172C182.867 23.6928 184.987 21.5464 185 18.8062C185 17.4774 184.51 16.2391 183.616 15.3177ZM181.822 21.139C181.032 21.7835 180.13 21.9086 179.139 21.5118C178.253 21.1576 177.747 20.4413 177.596 19.3228C177.494 18.5745 177.585 17.8928 177.867 17.2909C178.287 16.3962 179.155 15.8529 180.132 15.8529C180.226 15.8529 180.32 15.8582 180.417 15.8689C181.6 15.9941 182.427 16.7344 182.68 17.8928C182.727 18.1032 182.75 18.3242 182.771 18.5C182.779 18.5692 182.787 18.6331 182.792 18.6651C182.755 19.8714 182.466 20.6117 181.822 21.139ZM171.738 16.034H174.444V14.0447H171.709V12.0927H169.594V14.0634H168.549V16.0313H169.607V23.5011H174.53V21.5331H171.738V16.034ZM127.002 16.9021C126.845 15.8449 126.412 15.07 125.68 14.5374C124.447 13.6373 121.949 13.4615 120.612 15.1765V10.6547H118.515V23.5011H120.578L120.598 23.3466C120.604 23.3147 120.606 23.2907 120.606 23.2641V21.8527C120.606 20.9126 120.606 19.9726 120.609 19.0246C120.609 18.705 120.611 18.3721 120.64 18.0526C120.713 17.2723 121.115 16.5986 121.74 16.2018C122.374 15.7997 123.159 15.7304 123.894 16.0154C124.368 16.1991 124.666 16.5133 124.78 16.9501C124.885 17.3575 124.942 17.7809 124.947 18.1751C124.96 19.3628 124.958 20.5718 124.958 21.7382L124.955 23.5064H127.051L127.062 23.2987C127.064 23.2428 127.067 23.1895 127.067 23.1389V22.0977C127.067 20.665 127.067 19.2323 127.064 17.7996C127.067 17.488 127.043 17.1871 127.002 16.9021ZM114.352 16.034H117.058V14.0447H114.323V12.0927H112.209V14.0634H111.163V16.0313H112.222V23.5011H117.144V21.5331H114.352V16.034ZM139.281 18.7583C139.135 18.7609 138.994 18.9127 138.942 19.0192C138.064 20.7609 136.75 21.613 134.927 21.621H134.896C133.36 21.621 132.161 21.0378 131.335 19.8874C130.216 18.3348 130.214 15.8183 131.327 14.2764C132.331 12.889 133.801 12.3191 135.699 12.5881C137.063 12.7798 138.121 13.5441 138.843 14.8596C138.893 14.9502 139.026 15.1179 139.18 15.1233C139.649 15.1366 140.129 15.1339 140.593 15.1339H141.143L141.166 14.9741C141.171 14.9448 141.179 14.9129 141.169 14.8729C141.153 14.8064 141.135 14.7371 141.114 14.6732C140.817 13.7784 140.358 12.9875 139.753 12.3218C138.33 10.7559 136.426 10.0848 134.096 10.3245C132.143 10.5269 130.461 11.4856 129.361 13.0275C128.245 14.5907 127.862 16.5719 128.284 18.6038C128.657 20.396 129.679 21.9006 131.163 22.8407C132.247 23.5277 133.519 23.8819 134.823 23.8819C135.436 23.8819 136.059 23.802 136.666 23.6422C138.637 23.1256 140.074 21.7888 141.054 19.5625C141.111 19.432 141.161 19.2962 141.211 19.1524C141.237 19.0832 141.263 19.0086 141.291 18.934L141.359 18.7529H140.694C140.209 18.7476 139.745 18.7476 139.281 18.7583ZM108.952 10.463C108.269 10.463 107.732 11.0089 107.727 11.7066C107.724 12.0555 107.847 12.375 108.074 12.6094C108.301 12.8411 108.611 12.9689 108.952 12.9689H108.96C109.648 12.9636 110.191 12.4203 110.193 11.7306C110.193 11.3924 110.068 11.0728 109.836 10.8358C109.604 10.5961 109.289 10.463 108.952 10.463ZM107.92 23.4958H110.006V14.0714H107.92V23.4958Z" fill="#171D1C"/>
</svg>
